<svg width="210" height="78" viewBox="0 0 210 78" fill="none" xmlns="http://www.w3.org/2000/svg">
<path d="M85 16.2763V8.9006C85 5.64179 89.284 3 94.5686 3H197.431C202.716 3 207 5.64179 207 8.9006V50.2048C207 53.4636 202.716 56.1054 197.431 56.1054H180.686L186.282 72.2098C186.772 73.6175 184.036 74.5793 182.321 73.6029L156.765 59.0557H94.5686C89.284 59.0557 85 56.4139 85 53.1551V50.2048" stroke="url(#paint0_linear)" stroke-width="4.30079"/>
<path d="M10.21 35.6201C10.21 35.1025 9.95117 34.6973 9.43359 34.4043C8.92578 34.1016 8.10547 33.833 6.97266 33.5986C3.20312 32.8076 1.31836 31.2061 1.31836 28.7939C1.31836 27.3877 1.89941 26.2158 3.06152 25.2783C4.2334 24.3311 5.76172 23.8574 7.64648 23.8574C9.6582 23.8574 11.2646 24.3311 12.4658 25.2783C13.6768 26.2256 14.2822 27.4561 14.2822 28.9697H10.0488C10.0488 28.3643 9.85352 27.8662 9.46289 27.4756C9.07227 27.0752 8.46191 26.875 7.63184 26.875C6.91895 26.875 6.36719 27.0361 5.97656 27.3584C5.58594 27.6807 5.39062 28.0908 5.39062 28.5889C5.39062 29.0576 5.61035 29.4385 6.0498 29.7314C6.49902 30.0146 7.25098 30.2637 8.30566 30.4785C9.36035 30.6836 10.249 30.918 10.9717 31.1816C13.208 32.002 14.3262 33.4229 14.3262 35.4443C14.3262 36.8896 13.7061 38.0615 12.4658 38.96C11.2256 39.8486 9.62402 40.293 7.66113 40.293C6.33301 40.293 5.15137 40.0586 4.11621 39.5898C3.09082 39.1113 2.28516 38.4619 1.69922 37.6416C1.11328 36.8115 0.820312 35.918 0.820312 34.9609H4.83398C4.87305 35.7129 5.15137 36.2891 5.66895 36.6895C6.18652 37.0898 6.87988 37.29 7.74902 37.29C8.55957 37.29 9.16992 37.1387 9.58008 36.8359C10 36.5234 10.21 36.1182 10.21 35.6201ZM31.333 32.2217C31.333 34.6631 30.7764 36.6211 29.6631 38.0957C28.5596 39.5605 27.0654 40.293 25.1807 40.293C23.5791 40.293 22.2852 39.7363 21.2988 38.623V46.0938H17.0654V24.1504H20.9912L21.1377 25.7031C22.1631 24.4727 23.501 23.8574 25.1514 23.8574C27.1045 23.8574 28.623 24.5801 29.707 26.0254C30.791 27.4707 31.333 29.4629 31.333 32.002V32.2217ZM27.0996 31.9141C27.0996 30.4395 26.8359 29.3018 26.3086 28.501C25.791 27.7002 25.0342 27.2998 24.0381 27.2998C22.71 27.2998 21.7969 27.8076 21.2988 28.8232V35.3125C21.8164 36.3574 22.7393 36.8799 24.0674 36.8799C26.0889 36.8799 27.0996 35.2246 27.0996 31.9141ZM43.1543 40C42.959 39.6191 42.8174 39.1455 42.7295 38.5791C41.7041 39.7217 40.3711 40.293 38.7305 40.293C37.1777 40.293 35.8887 39.8438 34.8633 38.9453C33.8477 38.0469 33.3398 36.9141 33.3398 35.5469C33.3398 33.8672 33.96 32.5781 35.2002 31.6797C36.4502 30.7812 38.252 30.3271 40.6055 30.3174H42.5537V29.4092C42.5537 28.6768 42.3633 28.0908 41.9824 27.6514C41.6113 27.2119 41.0205 26.9922 40.21 26.9922C39.4971 26.9922 38.9355 27.1631 38.5254 27.5049C38.125 27.8467 37.9248 28.3154 37.9248 28.9111H33.6914C33.6914 27.9932 33.9746 27.1436 34.541 26.3623C35.1074 25.5811 35.9082 24.9707 36.9434 24.5312C37.9785 24.082 39.1406 23.8574 40.4297 23.8574C42.3828 23.8574 43.9307 24.3506 45.0732 25.3369C46.2256 26.3135 46.8018 27.6904 46.8018 29.4678V36.3379C46.8115 37.8418 47.0215 38.9795 47.4316 39.751V40H43.1543ZM39.6533 37.0557C40.2783 37.0557 40.8545 36.9189 41.3818 36.6455C41.9092 36.3623 42.2998 35.9863 42.5537 35.5176V32.793H40.9717C38.8525 32.793 37.7246 33.5254 37.5879 34.9902L37.5732 35.2393C37.5732 35.7666 37.7588 36.2012 38.1299 36.543C38.501 36.8848 39.0088 37.0557 39.6533 37.0557ZM56.6455 36.8799C57.4268 36.8799 58.0615 36.665 58.5498 36.2354C59.0381 35.8057 59.292 35.2344 59.3115 34.5215H63.2812C63.2715 35.5957 62.9785 36.582 62.4023 37.4805C61.8262 38.3691 61.0352 39.0625 60.0293 39.5605C59.0332 40.0488 57.9297 40.293 56.7188 40.293C54.4531 40.293 52.666 39.5752 51.3574 38.1396C50.0488 36.6943 49.3945 34.7021 49.3945 32.1631V31.8848C49.3945 29.4434 50.0439 27.4951 51.3428 26.04C52.6416 24.585 54.4238 23.8574 56.6895 23.8574C58.6719 23.8574 60.2588 24.4238 61.4502 25.5566C62.6514 26.6797 63.2617 28.1787 63.2812 30.0537H59.3115C59.292 29.2334 59.0381 28.5693 58.5498 28.0615C58.0615 27.5439 57.417 27.2852 56.6162 27.2852C55.6299 27.2852 54.8828 27.6465 54.375 28.3691C53.877 29.082 53.6279 30.2441 53.6279 31.8555V32.2949C53.6279 33.9258 53.877 35.0977 54.375 35.8105C54.873 36.5234 55.6299 36.8799 56.6455 36.8799ZM72.9932 40.293C70.6689 40.293 68.7744 39.5801 67.3096 38.1543C65.8545 36.7285 65.127 34.8291 65.127 32.4561V32.0459C65.127 30.4541 65.4346 29.0332 66.0498 27.7832C66.665 26.5234 67.5342 25.5566 68.6572 24.8828C69.79 24.1992 71.0791 23.8574 72.5244 23.8574C74.6924 23.8574 76.3965 24.541 77.6367 25.9082C78.8867 27.2754 79.5117 29.2139 79.5117 31.7236V33.4521H69.4189C69.5557 34.4873 69.9658 35.3174 70.6494 35.9424C71.3428 36.5674 72.2168 36.8799 73.2715 36.8799C74.9023 36.8799 76.1768 36.2891 77.0947 35.1074L79.1748 37.4365C78.54 38.335 77.6807 39.0381 76.5967 39.5459C75.5127 40.0439 74.3115 40.293 72.9932 40.293ZM72.5098 27.2852C71.6699 27.2852 70.9863 27.5684 70.459 28.1348C69.9414 28.7012 69.6094 29.5117 69.4629 30.5664H75.3516V30.2295C75.332 29.292 75.0781 28.5693 74.5898 28.0615C74.1016 27.5439 73.4082 27.2852 72.5098 27.2852Z" fill="#29292E"/>
<path d="M97.9834 35.6201C97.9834 35.1025 97.7246 34.6973 97.207 34.4043C96.6992 34.1016 95.8789 33.833 94.7461 33.5986C90.9766 32.8076 89.0918 31.2061 89.0918 28.7939C89.0918 27.3877 89.6729 26.2158 90.835 25.2783C92.0068 24.3311 93.5352 23.8574 95.4199 23.8574C97.4316 23.8574 99.0381 24.3311 100.239 25.2783C101.45 26.2256 102.056 27.4561 102.056 28.9697H97.8223C97.8223 28.3643 97.627 27.8662 97.2363 27.4756C96.8457 27.0752 96.2354 26.875 95.4053 26.875C94.6924 26.875 94.1406 27.0361 93.75 27.3584C93.3594 27.6807 93.1641 28.0908 93.1641 28.5889C93.1641 29.0576 93.3838 29.4385 93.8232 29.7314C94.2725 30.0146 95.0244 30.2637 96.0791 30.4785C97.1338 30.6836 98.0225 30.918 98.7451 31.1816C100.981 32.002 102.1 33.4229 102.1 35.4443C102.1 36.8896 101.479 38.0615 100.239 38.96C98.999 39.8486 97.3975 40.293 95.4346 40.293C94.1064 40.293 92.9248 40.0586 91.8896 39.5898C90.8643 39.1113 90.0586 38.4619 89.4727 37.6416C88.8867 36.8115 88.5938 35.918 88.5938 34.9609H92.6074C92.6465 35.7129 92.9248 36.2891 93.4424 36.6895C93.96 37.0898 94.6533 37.29 95.5225 37.29C96.333 37.29 96.9434 37.1387 97.3535 36.8359C97.7734 36.5234 97.9834 36.1182 97.9834 35.6201ZM114.331 38.3887C113.286 39.6582 111.841 40.293 109.995 40.293C108.296 40.293 106.997 39.8047 106.099 38.8281C105.21 37.8516 104.756 36.4209 104.736 34.5361V24.1504H108.97V34.3896C108.97 36.04 109.722 36.8652 111.226 36.8652C112.661 36.8652 113.647 36.3672 114.185 35.3711V24.1504H118.433V40H114.448L114.331 38.3887ZM121.011 31.958C121.011 29.5264 121.587 27.5684 122.739 26.084C123.901 24.5996 125.464 23.8574 127.427 23.8574C129.165 23.8574 130.518 24.4531 131.484 25.6445L131.66 24.1504H135.498V39.4727C135.498 40.8594 135.181 42.0654 134.546 43.0908C133.921 44.1162 133.037 44.8975 131.895 45.4346C130.752 45.9717 129.414 46.2402 127.881 46.2402C126.719 46.2402 125.586 46.0059 124.482 45.5371C123.379 45.0781 122.544 44.4824 121.978 43.75L123.853 41.1719C124.907 42.3535 126.187 42.9443 127.69 42.9443C128.813 42.9443 129.688 42.6416 130.312 42.0361C130.938 41.4404 131.25 40.5908 131.25 39.4873V38.6377C130.273 39.7412 128.989 40.293 127.397 40.293C125.493 40.293 123.95 39.5508 122.769 38.0664C121.597 36.5723 121.011 34.5947 121.011 32.1338V31.958ZM125.244 32.2656C125.244 33.7012 125.532 34.8291 126.108 35.6494C126.685 36.46 127.476 36.8652 128.481 36.8652C129.771 36.8652 130.693 36.3818 131.25 35.415V28.75C130.684 27.7832 129.771 27.2998 128.511 27.2998C127.495 27.2998 126.694 27.7148 126.108 28.5449C125.532 29.375 125.244 30.6152 125.244 32.2656ZM138.149 31.958C138.149 29.5264 138.726 27.5684 139.878 26.084C141.04 24.5996 142.603 23.8574 144.565 23.8574C146.304 23.8574 147.656 24.4531 148.623 25.6445L148.799 24.1504H152.637V39.4727C152.637 40.8594 152.319 42.0654 151.685 43.0908C151.06 44.1162 150.176 44.8975 149.033 45.4346C147.891 45.9717 146.553 46.2402 145.02 46.2402C143.857 46.2402 142.725 46.0059 141.621 45.5371C140.518 45.0781 139.683 44.4824 139.116 43.75L140.991 41.1719C142.046 42.3535 143.325 42.9443 144.829 42.9443C145.952 42.9443 146.826 42.6416 147.451 42.0361C148.076 41.4404 148.389 40.5908 148.389 39.4873V38.6377C147.412 39.7412 146.128 40.293 144.536 40.293C142.632 40.293 141.089 39.5508 139.907 38.0664C138.735 36.5723 138.149 34.5947 138.149 32.1338V31.958ZM142.383 32.2656C142.383 33.7012 142.671 34.8291 143.247 35.6494C143.823 36.46 144.614 36.8652 145.62 36.8652C146.909 36.8652 147.832 36.3818 148.389 35.415V28.75C147.822 27.7832 146.909 27.2998 145.649 27.2998C144.634 27.2998 143.833 27.7148 143.247 28.5449C142.671 29.375 142.383 30.6152 142.383 32.2656ZM163.198 40.293C160.874 40.293 158.979 39.5801 157.515 38.1543C156.06 36.7285 155.332 34.8291 155.332 32.4561V32.0459C155.332 30.4541 155.64 29.0332 156.255 27.7832C156.87 26.5234 157.739 25.5566 158.862 24.8828C159.995 24.1992 161.284 23.8574 162.729 23.8574C164.897 23.8574 166.602 24.541 167.842 25.9082C169.092 27.2754 169.717 29.2139 169.717 31.7236V33.4521H159.624C159.761 34.4873 160.171 35.3174 160.854 35.9424C161.548 36.5674 162.422 36.8799 163.477 36.8799C165.107 36.8799 166.382 36.2891 167.3 35.1074L169.38 37.4365C168.745 38.335 167.886 39.0381 166.802 39.5459C165.718 40.0439 164.517 40.293 163.198 40.293ZM162.715 27.2852C161.875 27.2852 161.191 27.5684 160.664 28.1348C160.146 28.7012 159.814 29.5117 159.668 30.5664H165.557V30.2295C165.537 29.292 165.283 28.5693 164.795 28.0615C164.307 27.5439 163.613 27.2852 162.715 27.2852ZM180.718 35.6201C180.718 35.1025 180.459 34.6973 179.941 34.4043C179.434 34.1016 178.613 33.833 177.48 33.5986C173.711 32.8076 171.826 31.2061 171.826 28.7939C171.826 27.3877 172.407 26.2158 173.569 25.2783C174.741 24.3311 176.27 23.8574 178.154 23.8574C180.166 23.8574 181.772 24.3311 182.974 25.2783C184.185 26.2256 184.79 27.4561 184.79 28.9697H180.557C180.557 28.3643 180.361 27.8662 179.971 27.4756C179.58 27.0752 178.97 26.875 178.14 26.875C177.427 26.875 176.875 27.0361 176.484 27.3584C176.094 27.6807 175.898 28.0908 175.898 28.5889C175.898 29.0576 176.118 29.4385 176.558 29.7314C177.007 30.0146 177.759 30.2637 178.813 30.4785C179.868 30.6836 180.757 30.918 181.479 31.1816C183.716 32.002 184.834 33.4229 184.834 35.4443C184.834 36.8896 184.214 38.0615 182.974 38.96C181.733 39.8486 180.132 40.293 178.169 40.293C176.841 40.293 175.659 40.0586 174.624 39.5898C173.599 39.1113 172.793 38.4619 172.207 37.6416C171.621 36.8115 171.328 35.918 171.328 34.9609H175.342C175.381 35.7129 175.659 36.2891 176.177 36.6895C176.694 37.0898 177.388 37.29 178.257 37.29C179.067 37.29 179.678 37.1387 180.088 36.8359C180.508 36.5234 180.718 36.1182 180.718 35.6201ZM196.157 35.6201C196.157 35.1025 195.898 34.6973 195.381 34.4043C194.873 34.1016 194.053 33.833 192.92 33.5986C189.15 32.8076 187.266 31.2061 187.266 28.7939C187.266 27.3877 187.847 26.2158 189.009 25.2783C190.181 24.3311 191.709 23.8574 193.594 23.8574C195.605 23.8574 197.212 24.3311 198.413 25.2783C199.624 26.2256 200.229 27.4561 200.229 28.9697H195.996C195.996 28.3643 195.801 27.8662 195.41 27.4756C195.02 27.0752 194.409 26.875 193.579 26.875C192.866 26.875 192.314 27.0361 191.924 27.3584C191.533 27.6807 191.338 28.0908 191.338 28.5889C191.338 29.0576 191.558 29.4385 191.997 29.7314C192.446 30.0146 193.198 30.2637 194.253 30.4785C195.308 30.6836 196.196 30.918 196.919 31.1816C199.155 32.002 200.273 33.4229 200.273 35.4443C200.273 36.8896 199.653 38.0615 198.413 38.96C197.173 39.8486 195.571 40.293 193.608 40.293C192.28 40.293 191.099 40.0586 190.063 39.5898C189.038 39.1113 188.232 38.4619 187.646 37.6416C187.061 36.8115 186.768 35.918 186.768 34.9609H190.781C190.82 35.7129 191.099 36.2891 191.616 36.6895C192.134 37.0898 192.827 37.29 193.696 37.29C194.507 37.29 195.117 37.1387 195.527 36.8359C195.947 36.5234 196.157 36.1182 196.157 35.6201Z" fill="url(#paint1_linear)"/>
<defs>
<linearGradient id="paint0_linear" x1="85" y1="3" x2="135.582" y2="104.556" gradientUnits="userSpaceOnUse">
<stop stop-color="#485BFF"/>
<stop offset="1" stop-color="#FF59F8"/>
</linearGradient>
<linearGradient id="paint1_linear" x1="0" y1="12" x2="9.06607" y2="73.1377" gradientUnits="userSpaceOnUse">
<stop stop-color="#485BFF"/>
<stop offset="1" stop-color="#FF59F8"/>
</linearGradient>
</defs>
</svg>
